<?xml version="1.0" encoding="UTF-8" standalone="no"?>
<!-- Created with Inkscape (http://www.inkscape.org/) -->

<svg
   width="331.64493mm"
   height="100.47604mm"
   viewBox="0 0 331.64493 100.47604"
   version="1.1"
   id="svg5"
   inkscape:version="1.1.2 (0a00cf5339, 2022-02-04)"
   sodipodi:docname="logo-with-title.svg"
   xmlns:inkscape="http://www.inkscape.org/namespaces/inkscape"
   xmlns:sodipodi="http://sodipodi.sourceforge.net/DTD/sodipodi-0.dtd"
   xmlns="http://www.w3.org/2000/svg"
   xmlns:svg="http://www.w3.org/2000/svg">
  <sodipodi:namedview
     id="namedview7"
     pagecolor="#ffffff"
     bordercolor="#666666"
     borderopacity="1.0"
     inkscape:pageshadow="2"
     inkscape:pageopacity="0.0"
     inkscape:pagecheckerboard="true"
     inkscape:document-units="mm"
     showgrid="false"
     inkscape:zoom="4.0000001"
     inkscape:cx="595.74999"
     inkscape:cy="337.74999"
     inkscape:window-width="1920"
     inkscape:window-height="1011"
     inkscape:window-x="0"
     inkscape:window-y="32"
     inkscape:window-maximized="1"
     inkscape:current-layer="text10114" />
  <defs
     id="defs2">
    <inkscape:path-effect
       effect="simplify"
       id="path-effect13857"
       is_visible="true"
       lpeversion="1"
       steps="1"
       threshold="0.000408163"
       smooth_angles="360"
       helper_size="0"
       simplify_individual_paths="false"
       simplify_just_coalesce="false" />
    <inkscape:path-effect
       effect="simplify"
       id="path-effect6029"
       is_visible="true"
       lpeversion="1"
       steps="1"
       threshold="0.000408163"
       smooth_angles="360"
       helper_size="0"
       simplify_individual_paths="false"
       simplify_just_coalesce="false" />
    <inkscape:path-effect
       effect="simplify"
       id="path-effect3433"
       is_visible="true"
       lpeversion="1"
       steps="1"
       threshold="0.000408163"
       smooth_angles="360"
       helper_size="0"
       simplify_individual_paths="false"
       simplify_just_coalesce="false" />
    <marker
       style="overflow:visible"
       id="Arrow1Lstart"
       refX="0"
       refY="0"
       orient="auto"
       inkscape:stockid="Arrow1Lstart"
       inkscape:isstock="true">
      <path
         transform="matrix(0.8,0,0,0.8,10,0)"
         style="fill:context-stroke;fill-rule:evenodd;stroke:context-stroke;stroke-width:1pt"
         d="M 0,0 5,-5 -12.5,0 5,5 Z"
         id="path874" />
    </marker>
  </defs>
  <g
     inkscape:groupmode="layer"
     id="layer2"
     inkscape:label="Layer 2"
     transform="translate(-33.830586,-48.525203)" />
  <g
     inkscape:label="Layer 1"
     inkscape:groupmode="layer"
     id="layer1"
     transform="translate(-33.830586,-48.525203)">
    <g
       id="g81808">
      <path
         style="fill:#ff0000;fill-opacity:1;stroke:none;stroke-width:1.33626;stroke-linecap:square;stroke-miterlimit:4;stroke-dasharray:none;stroke-opacity:1"
         d="m 454.05277,383.45304 c -8.22523,-2.83083 -15.38089,-3.72702 -25.55506,-5.16763 -5.01786,-0.71049 -18.73521,-4.22127 -21.91131,-4.22627 -1.36118,-0.002 -9.05809,3.04596 -8.72148,1.47245 l -0.0152,-1.83042 -0.43508,-45.81667 0.59484,-45.80459 4.09626,-0.55143 c 8.8425,0.0132 23.35454,1.25856 35.00385,2.91991 16.30882,2.32584 30.45864,6.02205 47.28013,10.5082 l 9.798,2.61305 -16.80889,44.88824 c -8.77964,23.44607 -16.33517,43.98975 -16.55188,43.9604 -0.21649,-0.0293 -6.54062,-2.20878 -8.98494,-3.05003 z"
         id="path33521"
         transform="scale(0.26458333)"
         sodipodi:nodetypes="cscsccccsscsscc" />
      <path
         style="fill:#ff0000;fill-opacity:1;stroke:none;stroke-width:1.33626;stroke-linecap:square;stroke-miterlimit:4;stroke-dasharray:none;stroke-opacity:1"
         d="m 423.60498,472.96326 c -6.898,-2.16537 -26.90142,7.78 -26.02265,0.27049 l 0.61133,-5.89409 -1.70439,-44.55158 1.45212,-45.29222 7.29403,-5.64268 c 14.57858,-11.27801 49.43726,-11.69858 51.99583,5.13637 l 2.23066,11.41053 -15.23331,42.21318 c -8.25983,22.88889 -15.35028,43.44253 -15.49819,43.75132 -0.23865,0.4982 -2.30182,-0.51496 -5.12543,-1.40132 z"
         id="path33482"
         transform="scale(0.26458333)"
         sodipodi:nodetypes="sscccsscsss" />
      <path
         style="fill:#ff0000;fill-opacity:1;stroke:none;stroke-width:1.33626;stroke-linecap:square;stroke-miterlimit:4;stroke-dasharray:none;stroke-opacity:1"
         d="m 398.01845,513.24337 0.25946,-41.78106 4.24304,-1.37714 c 6.61186,-2.14596 13.05206,1.33456 19.66198,3.16515 l 6.70437,1.85675 -14.67714,42.67986 c -7.35063,21.37498 -16.27106,38.5137 -16.38221,38.80538 -0.11116,0.29169 -7.75936,-21.2922 0.24889,-42.79532 z"
         id="path33443"
         transform="scale(0.26458333)"
         sodipodi:nodetypes="ccsscsssc" />
      <path
         style="fill:#ffff00;fill-opacity:1;stroke:none;stroke-width:1.33626;stroke-linecap:square;stroke-miterlimit:4;stroke-dasharray:none;stroke-opacity:1"
         d="m 165.00395,328.55996 -32.66706,-32.55648 5.79099,-6.06322 c 19.48646,-20.40252 45.89977,-39.50318 71.65873,-54.29098 53.80689,-30.88966 114.21618,-52.49088 176.70552,-48.83987 l 8.17571,0.23941 0.2902,45.75331 -0.28602,46.08211 -3.26018,-0.0715 c -1.8016,-0.0395 -6.10898,0.50226 -9.12302,0.6166 -19.58325,0.74296 -43.41599,4.87021 -63.33375,10.62861 -43.56658,12.59551 -82.30394,34.89395 -115.99337,66.31014 -2.75069,2.56508 -5.45691,5.14263 -5.52621,5.14263 -0.0693,0 -14.83382,-15.34223 -32.43154,-32.95081 z"
         id="path32884"
         transform="scale(0.26458333)"
         sodipodi:nodetypes="scssscccsssssss" />
      <path
         style="fill:#ffff00;fill-opacity:1;stroke:none;stroke-width:0.359334;stroke-linecap:square;stroke-miterlimit:4;stroke-dasharray:none;stroke-opacity:1"
         d="m 61.231629,104.4918 -8.785805,-8.526569 3.233354,-3.130905 C 66.95674,81.914092 78.918544,77.048769 94.48833,74.908033 c 3.065948,-0.421544 7.88691,-0.274166 10.11835,-0.274338 l 0.69999,-5.3e-5 v 12.068745 12.068745 l -0.76902,0.468772 c -0.37483,0.22849 -1.59104,0.07985 -2.45451,0.134973 -10.009861,0.638993 -19.745123,4.240543 -27.731971,10.428973 -0.73635,0.57054 -1.911317,1.77836 -2.652821,2.43075 -0.741505,0.65238 -1.465396,1.01455 -1.480573,1.01455 -0.01518,0 -4.153954,-4.06772 -8.986146,-8.75734 z"
         id="path32923"
         sodipodi:nodetypes="ccssscccssssssc" />
      <path
         style="fill:#ffff00;fill-opacity:1;stroke:none;stroke-width:1.33626;stroke-linecap:square;stroke-miterlimit:4;stroke-dasharray:none;stroke-opacity:1"
         d="m 299.09641,462.89434 -33.16665,-33.46885 2.37826,-0.82603 c 0.77307,-0.26851 2.55415,-2.44818 4.76285,-4.42339 31.92891,-28.55359 69.19968,-53.51613 111.98,-47.6174 l 9.33794,1.28755 2.10046,44.94186 -1.33662,45.56701 -4.44171,-0.30648 c -20.72064,-1.42975 -37.78804,12.79586 -56.02624,23.60698 l -3.27966,2.68474 z"
         id="path32962"
         transform="scale(0.26458333)"
         sodipodi:nodetypes="ccssscccsscc" />
      <path
         style="fill:#ffff00;fill-opacity:1;stroke:none;stroke-width:1.33626;stroke-linecap:square;stroke-miterlimit:4;stroke-dasharray:none;stroke-opacity:1"
         d="m 364.68973,527.94834 -33.28469,-33.60801 5.65549,-8.58059 c 7.29156,-11.06287 19.05282,-14.70663 32.11312,-18.6319 6.10743,-1.83559 26.71892,-1.60898 25.52217,3.26262 l 0.71505,1.58252 0.3703,42.49921 c 0.20246,23.23642 -1.00344,43.21692 -1.05254,43.21692 -0.049,0 -11.3722,-10.94804 -27.71257,-27.39874 z"
         id="path33001"
         transform="scale(0.26458333)"
         sodipodi:nodetypes="ccssscsssc" />
      <path
         style="fill:#3198ff;fill-opacity:1;stroke:none;stroke-width:1.33626;stroke-linecap:square;stroke-miterlimit:4;stroke-dasharray:none;stroke-opacity:1"
         d="m 212.83278,555.40638 c 0,0 0.78866,-14.88678 1.74884,-21.24905 5.52517,-36.61031 21.56397,-69.90048 46.90308,-97.54865 1.06084,-1.1575 -2.2091,2.62946 3.90636,-3.81232 l 32.93946,32.40349 31.54605,31.54457 -3.00695,3.57098 c -7.07455,8.40156 -11.14304,16.58099 -15.13715,26.3346 -3.80487,9.29147 -7.49334,16.83389 -8.17886,29.293 l -0.19395,3.52502 -46.29086,0.97837 -44.2028,-0.91568 0.049,-2.14932 z"
         id="path33230"
         transform="scale(0.26458333)"
         sodipodi:nodetypes="ssscccsssccccs" />
      <path
         style="fill:#3198ff;fill-opacity:1;stroke:none;stroke-width:1.33626;stroke-linecap:square;stroke-miterlimit:4;stroke-dasharray:none;stroke-opacity:1"
         d="m 308.22961,542.2542 c 2.08058,-19.40956 6.55872,-24.91756 19.16514,-39.99281 1.57945,-1.88877 3.78208,-4.08862 3.93266,-4.18169 0.15059,-0.0931 15.91341,14.21115 31.98153,30.97497 l 29.27694,30.54455 -42.05362,1.27182 -44.36971,0.66657 z"
         id="path33269"
         transform="scale(0.26458333)"
         sodipodi:nodetypes="sssscccs" />
      <path
         style="fill:none;stroke:#000000;stroke-linecap:square"
         d="m 34.799098,78.026783 c 0.190976,-0.190243 0.382706,-0.379714 0.575185,-0.56841 17.939121,-17.586502 42.386842,-28.43317 69.495107,-28.43317"
         id="path2328"
         sodipodi:nodetypes="csc" />
      <path
         style="fill:none;stroke:#000000;stroke-linecap:square"
         d="M 52.445824,95.965231 C 65.865248,82.540882 84.396037,74.226367 104.86887,74.191008 c 0.0437,-7.5e-5 0.0874,-1.13e-4 0.13113,-1.13e-4 8.25497,0 16.19555,1.346062 23.61423,3.83067 0.75936,0.254321 1.3914,0.432446 2.13961,0.710402"
         id="path2432" />
      <path
         id="path2536"
         style="fill:none;stroke:#000000;stroke-linecap:square"
         d="m 55.94902,148.5 c 0,-27.09011 21.960872,-49.05098 49.05098,-49.05098 6.05983,0 11.61361,0.89872 16.97173,2.90807"
         sodipodi:nodetypes="csc" />
      <path
         id="path2560"
         style="fill:none;stroke:#000000;stroke-linecap:square"
         d="M 80.686989,148.5 C 80.68699,135.0723 91.572295,124.18699 105,124.18699 c 2.98124,0 5.83715,0.53657 8.47643,1.51842"
         sodipodi:nodetypes="csc" />
      <path
         style="fill:none;stroke:#000000;stroke-width:1.0025;stroke-linecap:butt;stroke-linejoin:miter;stroke-miterlimit:4;stroke-dasharray:none;stroke-opacity:1"
         d="M 105.81991,148.5 H 56.086628"
         id="path2833"
         sodipodi:nodetypes="cc" />
      <path
         style="fill:#000000;fill-opacity:1;stroke:#000000;stroke-width:1;stroke-linecap:butt;stroke-linejoin:miter;stroke-miterlimit:4;stroke-dasharray:none;stroke-opacity:1"
         d="M 104.86771,148.5 103.98822,147.62051 34.183842,77.933243"
         id="path4992"
         sodipodi:nodetypes="ccc" />
      <path
         style="fill:none;stroke:#000000;stroke-width:1.00002;stroke-linecap:butt;stroke-linejoin:miter;stroke-miterlimit:4;stroke-dasharray:none;stroke-opacity:1"
         d="m 104.86771,148.5 c 0,-99.937045 0,-99.937045 0,-99.937045"
         id="path6066" />
      <path
         style="fill:none;stroke:#000000;stroke-width:1;stroke-linecap:butt;stroke-linejoin:miter;stroke-miterlimit:4;stroke-dasharray:none;stroke-opacity:1"
         d="m 105.35049,148.51151 16.9412,-46.52353 8.46215,-23.256013"
         id="path6767"
         sodipodi:nodetypes="ccc" />
    </g>
    <g
       aria-label="ARCHERY
RATING"
       id="text10114"
       style="font-size:50.8px;line-height:1.25;-inkscape-font-specification:'sans-serif, Normal';letter-spacing:-1.75948px;stroke-width:0.264583">
      <path
         d="m 165.29178,83.908572 h -11.1125 l -3.10059,6.796484 h -10.0707 l 18.45468,-36.264452 h 12.47676 l 3.05098,36.264452 h -9.45059 z m -7.56543,-7.739062 h 7.26777 l -0.42168,-10.517188 -0.0496,-2.133203 q 0,-1.860351 0.0992,-3.249414 -0.59531,2.133203 -1.51309,4.117578 z"
         style="font-style:italic;font-weight:800;font-family:'Open Sans';-inkscape-font-specification:'Open Sans Ultra-Bold Italic'"
         id="path16308" />
      <path
         d="m 189.89968,77.508963 -2.80293,13.196093 h -9.69864 l 7.66465,-36.264452 h 9.59942 q 6.25078,0 9.57461,2.480468 3.32382,2.480469 3.32382,7.466211 0,3.869531 -1.76113,6.746875 -1.76113,2.877344 -5.23379,4.39043 l 5.55625,12.799218 0.99219,2.38125 h -10.5668 l -4.83691,-13.196093 z m 1.56269,-7.366992 h 1.26504 q 2.35645,0 3.74551,-1.339454 1.38906,-1.364257 1.38906,-3.795117 0,-1.53789 -0.86816,-2.33164 -0.84336,-0.818555 -2.48047,-0.818555 h -1.31465 z"
         style="font-style:italic;font-weight:800;font-family:'Open Sans';-inkscape-font-specification:'Open Sans Ultra-Bold Italic'"
         id="path16310" />
      <path
         d="m 229.68805,61.956424 q -2.67891,0 -4.83692,1.934765 -2.15801,1.934766 -3.39824,5.333008 -1.21543,3.398242 -1.21543,7.366992 0,3.323828 1.38906,4.960938 1.38907,1.637109 3.99356,1.637109 2.05879,0 4.16719,-0.496094 2.10839,-0.520898 4.96093,-1.736328 v 8.011914 q -5.03535,2.232422 -10.91406,2.232422 -6.44922,0 -9.94668,-3.671094 -3.47266,-3.695898 -3.47266,-10.442773 0,-6.598047 2.50528,-12.104687 2.53008,-5.506641 6.84609,-8.309571 4.34082,-2.802929 9.92188,-2.802929 6.57324,0 11.93105,3.249414 l -3.67109,7.565429 q -2.30684,-1.364257 -4.2416,-2.033984 -1.93477,-0.694531 -4.01836,-0.694531 z"
         style="font-style:italic;font-weight:800;font-family:'Open Sans';-inkscape-font-specification:'Open Sans Ultra-Bold Italic'"
         id="path16312" />
      <path
         d="m 266.92154,90.705056 h -9.69864 l 3.10059,-14.783593 h -8.58242 l -3.1502,14.783593 h -9.69863 l 7.66465,-36.264452 h 9.69863 l -2.77812,13.44414 h 8.63203 l 2.77812,-13.44414 h 9.72344 z"
         style="font-style:italic;font-weight:800;font-family:'Open Sans';-inkscape-font-specification:'Open Sans Ultra-Bold Italic'"
         id="path16314" />
      <path
         d="m 294.92768,90.705056 h -21.53047 l 7.66465,-36.264452 h 21.53047 l -1.6123,7.863085 h -11.83184 l -1.16582,5.705078 h 11.01328 l -1.78594,7.863086 h -11.01328 l -1.41386,6.846094 h 11.83183 z"
         style="font-style:italic;font-weight:800;font-family:'Open Sans';-inkscape-font-specification:'Open Sans Ultra-Bold Italic'"
         id="path16316" />
      <path
         d="m 312.68949,77.508963 -2.80293,13.196093 h -9.69864 l 7.66465,-36.264452 h 9.59942 q 6.25078,0 9.57461,2.480468 3.32382,2.480469 3.32382,7.466211 0,3.869531 -1.76113,6.746875 -1.76113,2.877344 -5.23379,4.39043 l 5.55625,12.799218 0.99219,2.38125 h -10.5668 l -4.83691,-13.196093 z m 1.56269,-7.366992 h 1.26504 q 2.35645,0 3.74551,-1.339454 1.38906,-1.364257 1.38906,-3.795117 0,-1.53789 -0.86816,-2.33164 -0.84336,-0.818555 -2.48047,-0.818555 h -1.31465 z"
         style="font-style:italic;font-weight:800;font-family:'Open Sans';-inkscape-font-specification:'Open Sans Ultra-Bold Italic'"
         id="path16318" />
      <path
         d="m 346.9216,67.884744 7.73907,-13.44414 h 10.81484 l -15.18047,22.200195 -3.00137,14.064257 h -9.69863 l 2.97656,-14.064257 -5.87871,-22.200195 h 9.99629 z"
         style="font-style:italic;font-weight:800;font-family:'Open Sans';-inkscape-font-specification:'Open Sans Ultra-Bold Italic'"
         id="path16320" />
      <path
         d="m 157.32947,129.96417 -2.80293,13.19609 h -9.69863 l 7.66465,-36.26445 h 9.59941 q 6.25078,0 9.57461,2.48047 3.32383,2.48046 3.32383,7.46621 0,3.86953 -1.76113,6.74687 -1.76114,2.87735 -5.23379,4.39043 l 5.55625,12.79922 0.99218,2.38125 h -10.56679 l -4.83692,-13.19609 z m 1.5627,-7.367 h 1.26503 q 2.35645,0 3.74551,-1.33945 1.38907,-1.36426 1.38907,-3.79512 0,-1.53789 -0.86817,-2.33164 -0.84336,-0.81855 -2.48047,-0.81855 h -1.31465 z"
         style="font-style:italic;font-weight:800;font-family:'Open Sans';-inkscape-font-specification:'Open Sans Ultra-Bold Italic'"
         id="path16322" />
      <path
         d="m 196.54733,136.36378 h -11.1125 l -3.10058,6.79648 h -10.07071 l 18.45469,-36.26445 h 12.47676 l 3.05098,36.26445 h -9.45059 z m -7.56543,-7.73907 h 7.26778 l -0.42168,-10.51718 -0.0496,-2.13321 q 0,-1.86035 0.0992,-3.24941 -0.59532,2.1332 -1.51309,4.11758 z"
         style="font-style:italic;font-weight:800;font-family:'Open Sans';-inkscape-font-specification:'Open Sans Ultra-Bold Italic'"
         id="path16324" />
      <path
         d="m 223.38766,143.16026 h -9.69864 l 5.87871,-28.25254 h -7.86308 l 1.71152,-8.01191 h 25.49922 l -1.76113,8.01191 h -7.88789 z"
         style="font-style:italic;font-weight:800;font-family:'Open Sans';-inkscape-font-specification:'Open Sans Ultra-Bold Italic'"
         id="path16326" />
      <path
         d="m 234.87388,143.16026 7.66465,-36.26445 h 9.84746 l -7.66465,36.26445 z"
         style="font-style:italic;font-weight:800;font-family:'Open Sans';-inkscape-font-specification:'Open Sans Ultra-Bold Italic'"
         id="path16328" />
      <path
         d="m 283.09585,143.16026 h -11.28614 l -7.16855,-25.49922 h -0.19844 q -0.71933,7.21817 -1.41387,10.36836 l -3.1998,15.13086 h -8.63203 l 7.66465,-36.26445 h 11.28613 l 7.09414,24.383 h 0.22324 q 0.71934,-5.8539 1.41387,-9.20253 l 3.24941,-15.18047 h 8.63203 z"
         style="font-style:italic;font-weight:800;font-family:'Open Sans';-inkscape-font-specification:'Open Sans Ultra-Bold Italic'"
         id="path16330" />
      <path
         d="m 306.88519,121.92745 h 15.13086 l -4.14239,19.71972 q -6.20117,2.00918 -12.92324,2.00918 -6.47402,0 -10.0459,-3.77031 -3.57187,-3.77031 -3.57187,-10.69082 0,-6.62285 2.72851,-11.95586 2.72852,-5.33301 7.46621,-8.11113 4.7625,-2.80293 11.06289,-2.80293 6.59805,0 11.1125,2.6541 l -3.64628,7.66465 q -3.79512,-2.23242 -7.59024,-2.23242 -3.27422,0 -5.8043,1.81074 -2.50527,1.78594 -4.01836,5.3082 -1.48828,3.52227 -1.48828,7.51582 0,6.54844 5.18418,6.54844 1.5627,0 3.29903,-0.34727 l 1.26504,-5.75468 h -5.68028 z"
         style="font-style:italic;font-weight:800;font-family:'Open Sans';-inkscape-font-specification:'Open Sans Ultra-Bold Italic'"
         id="path16332" />
    </g>
  </g>
</svg>
